<svg version="1.1" id="Layer_1" xmlns="http://www.w3.org/2000/svg" xmlns:xlink="http://www.w3.org/1999/xlink" x="0px" y="0px"
	 width="100%" viewBox="0 0 1500 356" enable-background="new 0 0 1500 356" xml:space="preserve">
<path fill="#000000" opacity="1.000000" stroke="none" 
	d="
M1.000004,226.000000 
	C1.000000,151.020599 1.000000,76.041191 1.000000,1.000000 
	C430.694702,1.000000 860.389404,1.000000 1290.854004,1.344953 
	C1290.965210,2.120836 1290.349976,2.830653 1289.641113,2.941457 
	C1275.752563,5.112578 1262.397217,9.077484 1249.593994,14.855644 
	C1227.373169,24.884239 1207.696411,38.359436 1190.958130,56.328945 
	C1176.770020,71.560692 1165.572021,88.504112 1157.092041,107.443390 
	C1147.282593,129.352249 1143.058105,152.467621 1142.158203,176.212112 
	C1141.837646,184.672760 1143.251587,193.209351 1144.013184,201.698746 
	C1145.685913,220.345779 1151.217407,237.948410 1159.029175,254.840088 
	C1170.527954,279.703979 1187.140381,300.646454 1208.399048,317.896210 
	C1230.915405,336.166351 1256.156372,348.685638 1284.792725,354.098114 
	C1286.967041,354.509033 1288.935669,356.007233 1291.000000,357.000000 
	C861.000000,357.000000 431.000000,357.000000 1.000000,357.000000 
	C1.000000,321.228058 1.000000,285.571960 1.310204,249.159332 
	C4.970716,254.066132 10.876264,254.310928 19.572802,251.404785 
	C20.056002,246.387497 20.625847,241.498154 20.978624,236.593216 
	C21.709427,226.432281 22.383854,216.266449 22.972750,206.096329 
	C23.705841,193.436020 24.558508,180.776093 24.931087,168.103394 
	C25.259821,156.922104 24.999891,145.723511 24.999891,134.532547 
	C25.545376,134.480911 26.090860,134.429276 26.636343,134.377640 
	C29.735685,141.473114 32.840714,148.566116 35.933270,155.664536 
	C44.308575,174.888626 52.650669,194.127258 61.066170,213.333725 
	C63.926331,219.861404 69.860733,219.060898 75.374115,218.976944 
	C80.092407,218.905090 83.202133,216.411575 84.992416,212.120621 
	C87.764549,205.476349 90.540047,198.833298 93.355957,192.207504 
	C99.241524,178.358856 105.114014,164.504410 111.076889,150.689026 
	C113.319427,145.493317 115.797646,140.399323 118.464485,134.617020 
	C119.019936,141.989182 119.626556,148.472656 119.975876,154.969971 
	C121.037445,174.714569 121.942154,194.467636 123.025299,214.210983 
	C123.546432,223.710083 124.105095,233.217514 125.059654,242.679535 
	C126.026474,252.263184 130.911530,255.196304 140.055801,252.564194 
	C143.055298,251.700806 144.281158,250.387527 144.064163,247.117401 
	C143.235550,234.630005 142.684540,222.124420 141.983215,209.628235 
	C141.716476,204.875519 141.390579,200.124023 140.976303,195.382065 
	C139.680161,180.546143 138.484711,165.698822 136.944870,150.887680 
	C135.904449,140.880249 134.220520,130.940964 133.082642,120.941826 
	C132.583176,116.552681 130.254639,114.014748 126.177971,113.776215 
	C121.044807,113.475853 115.656364,113.163521 110.803406,114.454819 
	C108.656090,115.026184 107.437111,119.463921 106.006775,122.254173 
	C104.323174,125.538460 102.798798,128.909698 101.326012,132.295700 
	C97.177284,141.833832 93.114807,151.409454 88.973083,160.950668 
	C83.509567,173.536911 78.002983,186.104446 72.586380,198.516251 
	C70.470100,193.888184 68.257278,189.264160 66.222954,184.562912 
	C57.449738,164.288315 48.832020,143.945770 39.947910,123.720108 
	C35.078495,112.634331 28.684731,112.517265 19.768003,113.085045 
	C13.252015,113.499962 10.520710,116.558647 10.006350,122.810844 
	C9.307812,131.301819 8.649038,139.796127 7.997990,148.290909 
	C6.656733,165.791428 5.261001,183.288223 4.033338,200.796783 
	C3.502614,208.365784 3.392878,215.963867 2.916333,223.537704 
	C2.862375,224.395279 1.666416,225.180984 1.000004,226.000000 
M994.236023,252.996445 
	C996.079956,252.526199 997.923889,252.055954 1000.000000,251.526489 
	C1000.000000,225.546570 1000.095337,199.565964 999.902344,173.587479 
	C999.871704,169.457352 1001.640015,167.420273 1004.880737,165.498322 
	C1013.544556,160.360199 1022.899841,158.747971 1032.666016,160.102814 
	C1038.840576,160.959396 1044.128662,163.881271 1048.060303,169.137085 
	C1051.761353,174.084717 1052.876953,179.725952 1052.930786,185.536880 
	C1053.113159,205.201782 1052.996948,224.869431 1053.002441,244.536026 
	C1053.003906,250.019821 1055.842407,253.028214 1061.361816,252.945755 
	C1064.868286,252.893402 1068.366821,252.315323 1070.999756,252.057968 
	C1070.999756,225.852798 1071.322266,200.286514 1070.810547,174.736938 
	C1070.649414,166.690933 1066.459839,159.304337 1060.348877,154.043320 
	C1048.051514,143.456360 1033.119751,142.438141 1017.926880,144.703506 
	C1011.831421,145.612396 1005.999268,148.287766 1000.000000,150.173965 
	C1000.000000,138.674652 1000.000000,127.175331 1000.000000,115.676018 
	C1000.000000,104.490227 997.316406,101.993286 986.193726,103.040558 
	C984.490845,103.200905 982.837402,103.885605 981.183228,104.321968 
	C981.107483,105.023857 981.009216,105.510147 981.009094,105.996460 
	C981.001404,152.496292 981.022522,198.996170 980.968140,245.495941 
	C980.962524,250.288422 983.971619,252.049637 987.838074,252.931442 
	C989.580750,253.328903 991.489380,252.999039 994.236023,252.996445 
M802.996582,205.505600 
	C814.270447,204.003357 825.535217,202.427826 836.822144,201.030960 
	C842.159424,200.370438 846.691467,197.487640 846.937439,193.538040 
	C847.863892,178.659882 843.734558,165.328171 832.536377,155.226395 
	C818.770264,142.808151 802.112915,141.593506 784.958618,145.635315 
	C770.524902,149.036118 760.026001,158.134659 754.230286,171.662399 
	C748.049805,186.088058 747.174988,201.315475 751.073364,216.561264 
	C754.054199,228.218903 759.349365,238.391327 770.157715,245.109573 
	C778.589966,250.350815 787.464661,253.102264 797.329529,254.266983 
	C811.663513,255.959366 825.075256,254.340454 837.503723,246.824966 
	C841.446899,244.440536 843.154114,239.060684 841.874023,234.632584 
	C840.860535,231.126587 836.859436,228.096771 834.966736,229.568710 
	C828.695068,234.446167 821.630615,236.718887 813.806030,238.211273 
	C794.718018,241.851929 772.579468,231.920959 769.304260,210.154587 
	C780.274780,208.756210 791.242554,207.358200 802.996582,205.505600 
M207.098999,145.380936 
	C191.908401,149.629807 180.909653,159.103714 175.311539,173.629974 
	C169.818192,187.884369 169.445526,202.843307 173.335693,217.767487 
	C177.855316,235.106461 188.783325,246.641632 205.756897,251.746262 
	C216.028839,254.835434 226.646652,256.000244 237.629028,254.215988 
	C245.399017,252.953644 252.733032,251.241211 259.318298,246.957550 
	C264.775299,243.407837 265.785034,235.771118 261.682434,231.133255 
	C259.714050,228.908051 258.435455,228.746094 255.599991,230.649780 
	C242.136078,239.689224 227.456589,241.602371 212.160934,235.974075 
	C200.298492,231.609055 193.777481,222.525818 191.014603,210.223404 
	C201.915695,208.802521 212.713913,207.438721 223.498947,205.977554 
	C235.406128,204.364349 247.295334,202.618011 259.203857,201.015060 
	C266.082764,200.089127 269.090363,196.955032 268.953949,190.158920 
	C268.895386,187.241562 268.392792,184.326416 267.994202,181.423691 
	C265.529968,163.476868 255.219345,151.879745 238.440903,146.090347 
	C228.499405,142.660034 218.138947,143.476883 207.098999,145.380936 
M545.011841,188.509354 
	C537.904541,189.340225 530.648743,189.530334 523.721008,191.135971 
	C509.500153,194.431946 497.781158,200.390381 495.636322,217.454041 
	C494.065186,229.953476 499.051544,242.564682 510.022400,248.597000 
	C522.504822,255.460449 536.107849,255.922821 549.562378,254.699524 
	C557.851318,253.945862 566.056458,250.800079 573.966431,247.839172 
	C579.707520,245.690140 583.255493,241.430771 583.122192,234.310150 
	C582.764160,215.170227 583.000793,196.019196 582.999451,176.872574 
	C582.998474,162.846878 574.978943,151.317429 561.683472,147.060959 
	C545.153259,141.768906 528.617310,142.715332 512.370483,148.391098 
	C509.270203,149.474182 506.170288,151.468811 503.916687,153.845520 
	C500.766144,157.168167 501.261810,161.319138 503.631561,165.117874 
	C505.957458,168.846313 508.594147,167.554810 511.930115,166.142868 
	C522.615601,161.620285 533.657288,158.258575 545.512512,160.027313 
	C552.540649,161.075867 559.443848,163.046661 561.929504,170.629257 
	C563.595947,175.712952 563.882446,181.249023 564.818909,186.774033 
	C557.595459,187.260071 551.709778,187.656082 545.011841,188.509354 
M318.409393,146.951889 
	C315.936432,147.637848 313.290527,147.967300 311.019165,149.068909 
	C298.368073,155.204605 293.611572,157.087387 293.898041,172.995026 
	C294.302734,195.468140 294.233643,217.957367 293.910736,240.433121 
	C293.724945,253.365982 298.955261,253.208191 308.387695,252.933868 
	C309.895630,252.890015 311.380432,252.048477 313.000031,251.536484 
	C313.000031,249.737061 313.000031,248.084549 313.000031,246.432022 
	C313.000031,221.453781 313.068848,196.475143 312.920135,171.497787 
	C312.899597,168.052521 313.924988,166.423828 317.103790,164.861633 
	C326.687164,160.151932 336.779999,158.691132 347.083344,160.144073 
	C356.745422,161.506577 362.749725,165.540436 365.600708,175.227005 
	C366.689850,178.927536 366.915527,182.981796 366.941437,186.878799 
	C367.069855,206.194443 367.171082,225.514008 366.878082,244.826065 
	C366.806091,249.572296 369.117004,251.858582 372.858337,252.767868 
	C375.655640,253.447708 378.808594,253.021042 381.749573,252.655579 
	C384.879395,252.266663 386.151855,250.572906 386.112305,246.972382 
	C385.878052,225.660202 386.074463,204.343613 385.929443,183.029831 
	C385.901947,178.993484 385.348022,174.879623 384.426941,170.944305 
	C380.109558,152.497833 365.849365,145.768478 349.871948,144.206284 
	C339.649689,143.206802 329.148987,143.135406 318.409393,146.951889 
M949.998657,166.503769 
	C950.999023,164.569351 952.543457,162.729462 952.898926,160.682999 
	C954.028137,154.182632 949.351074,150.678116 943.944153,148.140015 
	C931.979858,142.523727 919.128296,142.661469 906.535400,145.141708 
	C890.382751,148.323074 877.846130,157.427994 871.320068,172.652054 
	C865.317505,186.654816 864.612976,201.605362 868.004883,216.605637 
	C870.487671,227.585297 875.568237,237.365738 884.716309,243.795502 
	C903.127930,256.736176 923.473083,257.995331 944.369446,250.728928 
	C948.625671,249.248901 953.058655,246.657120 953.974243,241.263855 
	C954.825623,236.249466 952.897217,232.524841 948.683777,230.376297 
	C944.460693,232.373138 940.533875,234.602448 936.352112,236.136688 
	C924.367554,240.533630 912.728760,240.595642 901.578674,233.197754 
	C892.378296,227.093491 887.909058,218.250031 886.457214,207.824768 
	C884.903992,196.672134 885.762573,185.636139 891.834717,175.732590 
	C903.208740,157.181458 927.969360,155.993317 943.516174,165.870468 
	C945.096985,166.874771 947.442261,166.675858 949.998657,166.503769 
M717.464966,149.000031 
	C708.373413,149.000031 699.281799,149.000031 689.999756,149.000031 
	C689.999756,139.758804 689.953796,131.115799 690.019653,122.473648 
	C690.051331,118.318413 688.473267,115.284065 684.105652,115.094055 
	C679.800232,114.906731 675.461792,115.475876 671.000610,115.720665 
	C671.000610,151.585541 670.967468,186.553207 671.045288,221.520615 
	C671.054321,225.589630 671.074585,229.827530 672.163818,233.683762 
	C673.620117,238.840149 675.496948,243.866119 680.510803,247.252792 
	C692.190857,255.142151 704.926941,256.529510 718.211548,253.737549 
	C723.078857,252.714615 728.759094,250.925064 729.488525,244.749298 
	C729.828125,241.873672 728.406311,238.551544 726.962830,235.873993 
	C726.608337,235.216583 723.024780,236.215439 720.950867,236.591400 
	C718.422058,237.049789 715.901917,237.582733 713.409119,238.207565 
	C699.657532,241.654495 690.001404,234.345779 690.000305,220.452255 
	C689.999146,205.294067 690.000000,190.135880 690.000000,174.977692 
	C690.000000,171.710587 690.000000,168.443466 690.000000,165.000183 
	C700.571655,165.000183 710.547119,165.055496 720.521362,164.971130 
	C724.164734,164.940308 727.818176,164.489273 728.924866,160.074905 
	C731.016174,151.733475 728.888306,149.000092 720.447510,149.000031 
	C719.781189,149.000031 719.114929,149.000031 717.464966,149.000031 
M419.000519,222.465210 
	C419.000458,223.964996 419.020752,225.465118 418.997070,226.964539 
	C418.779083,240.759979 426.606079,249.053726 438.419006,252.668594 
	C447.439697,255.429016 456.741547,255.803024 466.038208,253.969818 
	C474.418793,252.317245 479.010132,245.469589 476.385345,238.843475 
	C475.194397,235.837006 474.159393,234.110535 470.071594,235.803024 
	C463.515564,238.517487 456.657684,239.973907 449.251556,238.141907 
	C442.816559,236.550079 438.012634,231.694321 438.005981,224.869278 
	C437.987854,206.205063 437.994049,187.540802 438.012970,168.876587 
	C438.014252,167.617020 438.201752,166.357635 438.310455,165.000427 
	C448.828552,165.000427 458.985199,165.066986 469.140381,164.972076 
	C474.142578,164.925339 477.049255,161.610992 476.999664,156.408203 
	C476.938416,149.977997 475.972351,149.001450 469.655945,149.000458 
	C459.212128,148.998810 448.768280,149.000000 437.999725,149.000000 
	C437.999725,140.401733 438.013885,132.271805 437.995178,124.141937 
	C437.980438,117.741684 435.198273,115.029953 428.678650,115.001015 
	C427.512177,114.995834 426.339447,115.078354 425.180206,114.986778 
	C420.816254,114.642014 418.831238,115.856209 418.870117,120.989120 
	C419.123810,154.482834 419.000549,187.979385 419.000519,222.465210 
M635.999573,226.500000 
	C635.999634,188.020355 636.003113,149.540695 635.995483,111.061043 
	C635.994568,106.263718 633.049805,103.047775 628.230225,103.062370 
	C624.549988,103.073509 620.871338,103.643120 617.000427,103.981018 
	C617.000427,121.801933 617.000427,139.107574 617.000427,156.413223 
	C617.000427,185.564484 616.994324,214.715729 617.005127,243.866989 
	C617.007385,250.008377 619.641296,252.846954 625.830383,252.943192 
	C629.161011,252.995010 632.500610,252.464355 635.999573,252.183380 
	C635.999573,243.461914 635.999573,235.480957 635.999573,226.500000 
z"/>
<path fill="#F4F4F4" opacity="1.000000" stroke="none" 
	d="
M1291.468628,357.000000 
	C1288.935669,356.007233 1286.967041,354.509033 1284.792725,354.098114 
	C1256.156372,348.685638 1230.915405,336.166351 1208.399048,317.896210 
	C1187.140381,300.646454 1170.527954,279.703979 1159.029175,254.840088 
	C1151.217407,237.948410 1145.685913,220.345779 1144.013184,201.698746 
	C1143.251587,193.209351 1141.837646,184.672760 1142.158203,176.212112 
	C1143.058105,152.467621 1147.282593,129.352249 1157.092041,107.443390 
	C1165.572021,88.504112 1176.770020,71.560692 1190.958130,56.328945 
	C1207.696411,38.359436 1227.373169,24.884239 1249.593994,14.855644 
	C1262.397217,9.077484 1275.752563,5.112578 1289.641113,2.941457 
	C1290.349976,2.830653 1290.965210,2.120836 1291.312012,1.344953 
	C1311.020874,1.000000 1331.041870,1.000000 1351.226929,1.353549 
	C1351.746216,2.053749 1352.062988,2.649751 1352.461792,2.710983 
	C1366.520508,4.868521 1379.817017,9.359784 1392.915894,14.870358 
	C1410.844360,22.412685 1426.963135,32.697102 1441.121094,45.842865 
	C1449.060547,53.214661 1456.195312,61.517574 1463.199219,69.817268 
	C1473.442993,81.956169 1480.920410,95.877518 1486.914673,110.493011 
	C1493.226929,125.883881 1497.963013,141.773102 1499.096069,158.536560 
	C1499.131958,159.064865 1500.338989,159.513977 1501.000000,160.000000 
	C1501.000000,172.354233 1501.000000,184.708450 1500.634766,197.224930 
	C1499.847168,198.228012 1499.112671,199.045807 1499.048828,199.913086 
	C1497.778198,217.131195 1492.964722,233.492386 1486.224854,249.208710 
	C1473.944824,277.844177 1455.476074,301.816376 1430.676636,320.874542 
	C1409.031738,337.508484 1385.019165,348.789368 1358.199951,354.096344 
	C1356.026855,354.526306 1354.061768,356.007355 1352.000000,357.000000 
	C1331.979126,357.000000 1311.958130,357.000000 1291.468628,357.000000 
M1404.980225,37.472366 
	C1397.208862,33.650448 1389.633179,29.342947 1381.622070,26.116415 
	C1368.433716,20.804693 1354.793091,16.561754 1340.465454,16.093948 
	C1325.983032,15.621083 1311.321533,14.737349 1297.019775,16.421574 
	C1284.897705,17.849104 1272.952026,22.047886 1261.331177,26.159056 
	C1243.529785,32.456661 1227.710938,42.572376 1213.618774,55.041199 
	C1194.857544,71.641136 1179.984619,91.252594 1170.131958,114.480232 
	C1162.619995,132.189713 1158.367676,150.707977 1157.111938,169.805176 
	C1156.021729,186.385086 1157.972656,202.800446 1161.972778,218.974014 
	C1168.196533,244.137817 1179.760864,266.643372 1196.748047,286.046783 
	C1213.997192,305.749390 1234.662842,321.049011 1259.124146,331.106598 
	C1274.499878,337.428497 1290.447144,341.396484 1306.833008,342.756134 
	C1318.144287,343.694672 1329.673950,342.724335 1341.056641,341.913025 
	C1359.105957,340.626587 1376.039917,334.937042 1392.285645,327.235779 
	C1416.752563,315.637329 1437.050049,298.695770 1453.201050,277.132080 
	C1473.462769,250.080154 1484.257812,219.223877 1485.743774,185.556122 
	C1486.310303,172.717606 1485.266602,159.486542 1482.682495,146.901367 
	C1478.132324,124.740852 1469.407715,104.129471 1456.207642,85.358978 
	C1442.546875,65.933403 1425.697632,50.281101 1404.980225,37.472366 
z"/>
<path fill="#F4F4F4" opacity="1.000000" stroke="none" 
	d="
M1.000004,226.468628 
	C1.666416,225.180984 2.862375,224.395279 2.916333,223.537704 
	C3.392878,215.963867 3.502614,208.365784 4.033338,200.796783 
	C5.261001,183.288223 6.656733,165.791428 7.997990,148.290909 
	C8.649038,139.796127 9.307812,131.301819 10.006350,122.810844 
	C10.520710,116.558647 13.252015,113.499962 19.768003,113.085045 
	C28.684731,112.517265 35.078495,112.634331 39.947910,123.720108 
	C48.832020,143.945770 57.449738,164.288315 66.222954,184.562912 
	C68.257278,189.264160 70.470100,193.888184 72.586380,198.516251 
	C78.002983,186.104446 83.509567,173.536911 88.973083,160.950668 
	C93.114807,151.409454 97.177284,141.833832 101.326012,132.295700 
	C102.798798,128.909698 104.323174,125.538460 106.006775,122.254173 
	C107.437111,119.463921 108.656090,115.026184 110.803406,114.454819 
	C115.656364,113.163521 121.044807,113.475853 126.177971,113.776215 
	C130.254639,114.014748 132.583176,116.552681 133.082642,120.941826 
	C134.220520,130.940964 135.904449,140.880249 136.944870,150.887680 
	C138.484711,165.698822 139.680161,180.546143 140.976303,195.382065 
	C141.390579,200.124023 141.716476,204.875519 141.983215,209.628235 
	C142.684540,222.124420 143.235550,234.630005 144.064163,247.117401 
	C144.281158,250.387527 143.055298,251.700806 140.055801,252.564194 
	C130.911530,255.196304 126.026474,252.263184 125.059654,242.679535 
	C124.105095,233.217514 123.546432,223.710083 123.025299,214.210983 
	C121.942154,194.467636 121.037445,174.714569 119.975876,154.969971 
	C119.626556,148.472656 119.019936,141.989182 118.464485,134.617020 
	C115.797646,140.399323 113.319427,145.493317 111.076889,150.689026 
	C105.114014,164.504410 99.241524,178.358856 93.355957,192.207504 
	C90.540047,198.833298 87.764549,205.476349 84.992416,212.120621 
	C83.202133,216.411575 80.092407,218.905090 75.374115,218.976944 
	C69.860733,219.060898 63.926331,219.861404 61.066170,213.333725 
	C52.650669,194.127258 44.308575,174.888626 35.933270,155.664536 
	C32.840714,148.566116 29.735685,141.473114 26.636343,134.377640 
	C26.090860,134.429276 25.545376,134.480911 24.999891,134.532547 
	C24.999891,145.723511 25.259821,156.922104 24.931087,168.103394 
	C24.558508,180.776093 23.705841,193.436020 22.972750,206.096329 
	C22.383854,216.266449 21.709427,226.432281 20.978624,236.593216 
	C20.625847,241.498154 20.056002,246.387497 19.572802,251.404785 
	C10.876264,254.310928 4.970716,254.066132 1.310204,248.701385 
	C1.000000,241.645752 1.000000,234.291504 1.000004,226.468628 
z"/>
<path fill="#000000" opacity="1.000000" stroke="none" 
	d="
M1352.468628,357.000000 
	C1354.061768,356.007355 1356.026855,354.526306 1358.199951,354.096344 
	C1385.019165,348.789368 1409.031738,337.508484 1430.676636,320.874542 
	C1455.476074,301.816376 1473.944824,277.844177 1486.224854,249.208710 
	C1492.964722,233.492386 1497.778198,217.131195 1499.048828,199.913086 
	C1499.112671,199.045807 1499.847168,198.228012 1500.634766,197.693588 
	C1501.000000,250.924637 1501.000000,303.849274 1501.000000,357.000000 
	C1451.645996,357.000000 1402.291626,357.000000 1352.468628,357.000000 
z"/>
<path fill="#000000" opacity="1.000000" stroke="none" 
	d="
M1501.000000,159.531342 
	C1500.338989,159.513977 1499.131958,159.064865 1499.096069,158.536560 
	C1497.963013,141.773102 1493.226929,125.883881 1486.914673,110.493011 
	C1480.920410,95.877518 1473.442993,81.956169 1463.199219,69.817268 
	C1456.195312,61.517574 1449.060547,53.214661 1441.121094,45.842865 
	C1426.963135,32.697102 1410.844360,22.412685 1392.915894,14.870358 
	C1379.817017,9.359784 1366.520508,4.868521 1352.461792,2.710983 
	C1352.062988,2.649751 1351.746216,2.053749 1351.695557,1.353549 
	C1401.596069,1.000000 1451.192017,1.000000 1501.000000,1.000000 
	C1501.000000,53.687370 1501.000000,106.375031 1501.000000,159.531342 
z"/>
<path fill="#F4F4F4" opacity="1.000000" stroke="none" 
	d="
M993.779358,252.997803 
	C991.489380,252.999039 989.580750,253.328903 987.838074,252.931442 
	C983.971619,252.049637 980.962524,250.288422 980.968140,245.495941 
	C981.022522,198.996170 981.001404,152.496292 981.009094,105.996460 
	C981.009216,105.510147 981.107483,105.023857 981.183228,104.321968 
	C982.837402,103.885605 984.490845,103.200905 986.193726,103.040558 
	C997.316406,101.993286 1000.000000,104.490227 1000.000000,115.676018 
	C1000.000000,127.175331 1000.000000,138.674652 1000.000000,150.173965 
	C1005.999268,148.287766 1011.831421,145.612396 1017.926880,144.703506 
	C1033.119751,142.438141 1048.051514,143.456360 1060.348877,154.043320 
	C1066.459839,159.304337 1070.649414,166.690933 1070.810547,174.736938 
	C1071.322266,200.286514 1070.999756,225.852798 1070.999756,252.057968 
	C1068.366821,252.315323 1064.868286,252.893402 1061.361816,252.945755 
	C1055.842407,253.028214 1053.003906,250.019821 1053.002441,244.536026 
	C1052.996948,224.869431 1053.113159,205.201782 1052.930786,185.536880 
	C1052.876953,179.725952 1051.761353,174.084717 1048.060303,169.137085 
	C1044.128662,163.881271 1038.840576,160.959396 1032.666016,160.102814 
	C1022.899841,158.747971 1013.544556,160.360199 1004.880737,165.498322 
	C1001.640015,167.420273 999.871704,169.457352 999.902344,173.587479 
	C1000.095337,199.565964 1000.000000,225.546570 1000.000000,251.526489 
	C997.923889,252.055954 996.079956,252.526199 993.779358,252.997803 
z"/>
<path fill="#F4F4F4" opacity="1.000000" stroke="none" 
	d="
M802.603394,205.732880 
	C791.242554,207.358200 780.274780,208.756210 769.304260,210.154587 
	C772.579468,231.920959 794.718018,241.851929 813.806030,238.211273 
	C821.630615,236.718887 828.695068,234.446167 834.966736,229.568710 
	C836.859436,228.096771 840.860535,231.126587 841.874023,234.632584 
	C843.154114,239.060684 841.446899,244.440536 837.503723,246.824966 
	C825.075256,254.340454 811.663513,255.959366 797.329529,254.266983 
	C787.464661,253.102264 778.589966,250.350815 770.157715,245.109573 
	C759.349365,238.391327 754.054199,228.218903 751.073364,216.561264 
	C747.174988,201.315475 748.049805,186.088058 754.230286,171.662399 
	C760.026001,158.134659 770.524902,149.036118 784.958618,145.635315 
	C802.112915,141.593506 818.770264,142.808151 832.536377,155.226395 
	C843.734558,165.328171 847.863892,178.659882 846.937439,193.538040 
	C846.691467,197.487640 842.159424,200.370438 836.822144,201.030960 
	C825.535217,202.427826 814.270447,204.003357 802.603394,205.732880 
M776.457947,170.047836 
	C770.544983,177.166824 767.915161,185.373505 768.000671,195.040833 
	C788.557678,192.254730 808.734192,189.520187 829.101685,186.759766 
	C828.693420,184.772980 828.474548,183.014114 827.966553,181.343109 
	C823.096069,165.322311 813.156738,159.059906 798.643555,159.200821 
	C790.282104,159.282043 782.518860,162.568375 776.457947,170.047836 
z"/>
<path fill="#F4F4F4" opacity="1.000000" stroke="none" 
	d="
M207.490967,145.204285 
	C218.138947,143.476883 228.499405,142.660034 238.440903,146.090347 
	C255.219345,151.879745 265.529968,163.476868 267.994202,181.423691 
	C268.392792,184.326416 268.895386,187.241562 268.953949,190.158920 
	C269.090363,196.955032 266.082764,200.089127 259.203857,201.015060 
	C247.295334,202.618011 235.406128,204.364349 223.498947,205.977554 
	C212.713913,207.438721 201.915695,208.802521 191.014603,210.223404 
	C193.777481,222.525818 200.298492,231.609055 212.160934,235.974075 
	C227.456589,241.602371 242.136078,239.689224 255.599991,230.649780 
	C258.435455,228.746094 259.714050,228.908051 261.682434,231.133255 
	C265.785034,235.771118 264.775299,243.407837 259.318298,246.957550 
	C252.733032,251.241211 245.399017,252.953644 237.629028,254.215988 
	C226.646652,256.000244 216.028839,254.835434 205.756897,251.746262 
	C188.783325,246.641632 177.855316,235.106461 173.335693,217.767487 
	C169.445526,202.843307 169.818192,187.884369 175.311539,173.629974 
	C180.909653,159.103714 191.908401,149.629807 207.490967,145.204285 
M209.574417,161.934311 
	C196.909821,166.267792 188.667999,182.991959 190.475342,194.989792 
	C210.642441,192.248520 230.812698,189.506821 251.082642,186.751572 
	C250.663879,184.624374 250.489410,182.837143 249.953766,181.165649 
	C246.823624,171.398010 241.439499,163.602493 231.035187,160.537277 
	C224.010910,158.467880 217.015030,158.823502 209.574417,161.934311 
z"/>
<path fill="#F4F4F4" opacity="1.000000" stroke="none" 
	d="
M545.417969,188.280731 
	C551.709778,187.656082 557.595459,187.260071 564.818909,186.774033 
	C563.882446,181.249023 563.595947,175.712952 561.929504,170.629257 
	C559.443848,163.046661 552.540649,161.075867 545.512512,160.027313 
	C533.657288,158.258575 522.615601,161.620285 511.930115,166.142868 
	C508.594147,167.554810 505.957458,168.846313 503.631561,165.117874 
	C501.261810,161.319138 500.766144,157.168167 503.916687,153.845520 
	C506.170288,151.468811 509.270203,149.474182 512.370483,148.391098 
	C528.617310,142.715332 545.153259,141.768906 561.683472,147.060959 
	C574.978943,151.317429 582.998474,162.846878 582.999451,176.872574 
	C583.000793,196.019196 582.764160,215.170227 583.122192,234.310150 
	C583.255493,241.430771 579.707520,245.690140 573.966431,247.839172 
	C566.056458,250.800079 557.851318,253.945862 549.562378,254.699524 
	C536.107849,255.922821 522.504822,255.460449 510.022400,248.597000 
	C499.051544,242.564682 494.065186,229.953476 495.636322,217.454041 
	C497.781158,200.390381 509.500153,194.431946 523.721008,191.135971 
	C530.648743,189.530334 537.904541,189.340225 545.417969,188.280731 
M545.392822,203.999710 
	C538.842163,204.995880 532.229553,205.698929 525.757324,207.066238 
	C518.507385,208.597839 515.342712,214.201935 514.096497,220.894577 
	C513.134094,226.062958 517.434570,233.067917 523.370789,235.665588 
	C536.172791,241.267700 549.023804,240.070633 561.685791,234.964005 
	C562.648865,234.575623 563.859436,233.223419 563.873779,232.302414 
	C564.030518,222.223526 563.972046,212.141281 563.972046,201.692627 
	C557.620483,202.522842 551.971252,203.261246 545.392822,203.999710 
z"/>
<path fill="#F4F4F4" opacity="1.000000" stroke="none" 
	d="
M318.740540,146.692154 
	C329.148987,143.135406 339.649689,143.206802 349.871948,144.206284 
	C365.849365,145.768478 380.109558,152.497833 384.426941,170.944305 
	C385.348022,174.879623 385.901947,178.993484 385.929443,183.029831 
	C386.074463,204.343613 385.878052,225.660202 386.112305,246.972382 
	C386.151855,250.572906 384.879395,252.266663 381.749573,252.655579 
	C378.808594,253.021042 375.655640,253.447708 372.858337,252.767868 
	C369.117004,251.858582 366.806091,249.572296 366.878082,244.826065 
	C367.171082,225.514008 367.069855,206.194443 366.941437,186.878799 
	C366.915527,182.981796 366.689850,178.927536 365.600708,175.227005 
	C362.749725,165.540436 356.745422,161.506577 347.083344,160.144073 
	C336.779999,158.691132 326.687164,160.151932 317.103790,164.861633 
	C313.924988,166.423828 312.899597,168.052521 312.920135,171.497787 
	C313.068848,196.475143 313.000031,221.453781 313.000031,246.432022 
	C313.000031,248.084549 313.000031,249.737061 313.000031,251.536484 
	C311.380432,252.048477 309.895630,252.890015 308.387695,252.933868 
	C298.955261,253.208191 293.724945,253.365982 293.910736,240.433121 
	C294.233643,217.957367 294.302734,195.468140 293.898041,172.995026 
	C293.611572,157.087387 298.368073,155.204605 311.019165,149.068909 
	C313.290527,147.967300 315.936432,147.637848 318.740540,146.692154 
z"/>
<path fill="#F4F4F4" opacity="1.000000" stroke="none" 
	d="
M949.715698,166.769531 
	C947.442261,166.675858 945.096985,166.874771 943.516174,165.870468 
	C927.969360,155.993317 903.208740,157.181458 891.834717,175.732590 
	C885.762573,185.636139 884.903992,196.672134 886.457214,207.824768 
	C887.909058,218.250031 892.378296,227.093491 901.578674,233.197754 
	C912.728760,240.595642 924.367554,240.533630 936.352112,236.136688 
	C940.533875,234.602448 944.460693,232.373138 948.683777,230.376297 
	C952.897217,232.524841 954.825623,236.249466 953.974243,241.263855 
	C953.058655,246.657120 948.625671,249.248901 944.369446,250.728928 
	C923.473083,257.995331 903.127930,256.736176 884.716309,243.795502 
	C875.568237,237.365738 870.487671,227.585297 868.004883,216.605637 
	C864.612976,201.605362 865.317505,186.654816 871.320068,172.652054 
	C877.846130,157.427994 890.382751,148.323074 906.535400,145.141708 
	C919.128296,142.661469 931.979858,142.523727 943.944153,148.140015 
	C949.351074,150.678116 954.028137,154.182632 952.898926,160.682999 
	C952.543457,162.729462 950.999023,164.569351 949.715698,166.769531 
z"/>
<path fill="#F4F4F4" opacity="1.000000" stroke="none" 
	d="
M717.956787,149.000031 
	C719.114929,149.000031 719.781189,149.000031 720.447510,149.000031 
	C728.888306,149.000092 731.016174,151.733475 728.924866,160.074905 
	C727.818176,164.489273 724.164734,164.940308 720.521362,164.971130 
	C710.547119,165.055496 700.571655,165.000183 690.000000,165.000183 
	C690.000000,168.443466 690.000000,171.710587 690.000000,174.977692 
	C690.000000,190.135880 689.999146,205.294067 690.000305,220.452255 
	C690.001404,234.345779 699.657532,241.654495 713.409119,238.207565 
	C715.901917,237.582733 718.422058,237.049789 720.950867,236.591400 
	C723.024780,236.215439 726.608337,235.216583 726.962830,235.873993 
	C728.406311,238.551544 729.828125,241.873672 729.488525,244.749298 
	C728.759094,250.925064 723.078857,252.714615 718.211548,253.737549 
	C704.926941,256.529510 692.190857,255.142151 680.510803,247.252792 
	C675.496948,243.866119 673.620117,238.840149 672.163818,233.683762 
	C671.074585,229.827530 671.054321,225.589630 671.045288,221.520615 
	C670.967468,186.553207 671.000610,151.585541 671.000610,115.720665 
	C675.461792,115.475876 679.800232,114.906731 684.105652,115.094055 
	C688.473267,115.284065 690.051331,118.318413 690.019653,122.473648 
	C689.953796,131.115799 689.999756,139.758804 689.999756,149.000031 
	C699.281799,149.000031 708.373413,149.000031 717.956787,149.000031 
z"/>
<path fill="#F4F4F4" opacity="1.000000" stroke="none" 
	d="
M419.000549,221.970123 
	C419.000549,187.979385 419.123810,154.482834 418.870117,120.989120 
	C418.831238,115.856209 420.816254,114.642014 425.180206,114.986778 
	C426.339447,115.078354 427.512177,114.995834 428.678650,115.001015 
	C435.198273,115.029953 437.980438,117.741684 437.995178,124.141937 
	C438.013885,132.271805 437.999725,140.401733 437.999725,149.000000 
	C448.768280,149.000000 459.212128,148.998810 469.655945,149.000458 
	C475.972351,149.001450 476.938416,149.977997 476.999664,156.408203 
	C477.049255,161.610992 474.142578,164.925339 469.140381,164.972076 
	C458.985199,165.066986 448.828552,165.000427 438.310455,165.000427 
	C438.201752,166.357635 438.014252,167.617020 438.012970,168.876587 
	C437.994049,187.540802 437.987854,206.205063 438.005981,224.869278 
	C438.012634,231.694321 442.816559,236.550079 449.251556,238.141907 
	C456.657684,239.973907 463.515564,238.517487 470.071594,235.803024 
	C474.159393,234.110535 475.194397,235.837006 476.385345,238.843475 
	C479.010132,245.469589 474.418793,252.317245 466.038208,253.969818 
	C456.741547,255.803024 447.439697,255.429016 438.419006,252.668594 
	C426.606079,249.053726 418.779083,240.759979 418.997070,226.964539 
	C419.020752,225.465118 419.000458,223.964996 419.000549,221.970123 
z"/>
<path fill="#F4F4F4" opacity="1.000000" stroke="none" 
	d="
M635.999573,227.000000 
	C635.999573,235.480957 635.999573,243.461914 635.999573,252.183380 
	C632.500610,252.464355 629.161011,252.995010 625.830383,252.943192 
	C619.641296,252.846954 617.007385,250.008377 617.005127,243.866989 
	C616.994324,214.715729 617.000427,185.564484 617.000427,156.413223 
	C617.000427,139.107574 617.000427,121.801933 617.000427,103.981018 
	C620.871338,103.643120 624.549988,103.073509 628.230225,103.062370 
	C633.049805,103.047775 635.994568,106.263718 635.995483,111.061043 
	C636.003113,149.540695 635.999634,188.020355 635.999573,227.000000 
z"/>
<path fill="#000000" opacity="1.000000" stroke="none" 
	d="
M1405.270874,37.714912 
	C1425.697632,50.281101 1442.546875,65.933403 1456.207642,85.358978 
	C1469.407715,104.129471 1478.132324,124.740852 1482.682495,146.901367 
	C1485.266602,159.486542 1486.310303,172.717606 1485.743774,185.556122 
	C1484.257812,219.223877 1473.462769,250.080154 1453.201050,277.132080 
	C1437.050049,298.695770 1416.752563,315.637329 1392.285645,327.235779 
	C1376.039917,334.937042 1359.105957,340.626587 1341.056641,341.913025 
	C1329.673950,342.724335 1318.144287,343.694672 1306.833008,342.756134 
	C1290.447144,341.396484 1274.499878,337.428497 1259.124146,331.106598 
	C1234.662842,321.049011 1213.997192,305.749390 1196.748047,286.046783 
	C1179.760864,266.643372 1168.196533,244.137817 1161.972778,218.974014 
	C1157.972656,202.800446 1156.021729,186.385086 1157.111938,169.805176 
	C1158.367676,150.707977 1162.619995,132.189713 1170.131958,114.480232 
	C1179.984619,91.252594 1194.857544,71.641136 1213.618774,55.041199 
	C1227.710938,42.572376 1243.529785,32.456661 1261.331177,26.159056 
	C1272.952026,22.047886 1284.897705,17.849104 1297.019775,16.421574 
	C1311.321533,14.737349 1325.983032,15.621083 1340.465454,16.093948 
	C1354.793091,16.561754 1368.433716,20.804693 1381.622070,26.116415 
	C1389.633179,29.342947 1397.208862,33.650448 1405.270874,37.714912 
M1347.500000,272.999390 
	C1361.261108,272.999390 1375.022217,272.999390 1388.999756,272.999390 
	C1388.999756,270.792175 1388.999512,269.148499 1388.999878,267.504852 
	C1389.004028,251.030182 1380.733643,236.480362 1362.747803,233.882599 
	C1356.732422,233.013809 1350.728271,231.663666 1344.917114,229.885864 
	C1337.447510,227.600632 1336.514526,222.965240 1341.975220,217.563660 
	C1343.395874,216.158264 1344.743164,214.676422 1346.196777,213.306686 
	C1353.959717,205.991653 1361.033936,198.042450 1363.903320,187.550583 
	C1367.919312,172.867172 1367.080322,158.268051 1360.993286,144.181030 
	C1357.532837,136.172806 1352.108521,129.907242 1344.124756,125.993912 
	C1333.983887,121.023193 1323.303833,119.309380 1312.429199,122.137383 
	C1300.040649,125.359070 1289.540649,131.529037 1283.593140,143.782074 
	C1278.596436,154.076691 1277.172729,164.721741 1277.833130,176.091324 
	C1278.412720,186.069092 1281.508667,194.765900 1287.800781,202.246033 
	C1292.683105,208.050156 1298.183594,213.332687 1303.375854,218.878387 
	C1306.888306,222.630035 1306.590332,225.935013 1301.750488,227.873627 
	C1296.151489,230.116379 1290.238647,231.909973 1284.295654,232.901062 
	C1259.608521,237.017960 1254.348145,252.282928 1254.599854,272.999390 
	C1285.231445,272.999390 1315.865723,272.999390 1347.500000,272.999390 
M1385.510620,167.999710 
	C1382.349609,168.000092 1379.123413,167.626297 1376.055420,168.160904 
	C1374.553711,168.422592 1372.741455,170.165619 1372.236450,171.638260 
	C1371.942627,172.495163 1373.911743,175.219299 1374.942505,175.264038 
	C1382.303467,175.583481 1389.691772,175.579788 1397.052368,175.253952 
	C1398.085815,175.208206 1400.058472,172.486160 1399.764404,171.638611 
	C1399.253174,170.164978 1397.445923,168.423233 1395.943726,168.161469 
	C1392.875732,167.626816 1389.649536,168.000290 1385.510620,167.999710 
M1243.003052,170.691772 
	C1242.127441,175.118256 1245.082886,175.877213 1248.325928,175.956329 
	C1254.114746,176.097549 1259.929932,176.269730 1265.689331,175.835022 
	C1267.479004,175.699951 1270.474121,173.720764 1270.545044,172.453217 
	C1270.679321,170.051300 1268.938721,167.902267 1265.700317,167.965973 
	C1259.579590,168.086426 1253.451172,167.889297 1247.334106,168.082565 
	C1245.887939,168.128250 1244.474121,169.198349 1243.003052,170.691772 
M1291.967407,119.991707 
	C1293.583252,119.491196 1296.494507,119.140671 1296.573120,118.462204 
	C1296.814087,116.380653 1296.522583,113.830902 1295.439697,112.080803 
	C1292.495239,107.322052 1289.052856,102.869827 1285.776489,98.318687 
	C1283.957886,95.792336 1281.353760,94.812302 1279.195312,97.162643 
	C1278.268677,98.171799 1278.534180,101.341980 1279.442993,102.783310 
	C1283.109009,108.597717 1287.237305,114.120766 1291.967407,119.991707 
M1357.490356,109.006462 
	C1355.807739,111.356247 1353.735962,113.534447 1352.594360,116.122841 
	C1351.951416,117.580421 1352.206787,120.477486 1353.224487,121.325333 
	C1354.207153,122.143936 1357.566040,121.861763 1358.365601,120.857109 
	C1362.754517,115.341675 1366.845581,109.560890 1370.593872,103.591705 
	C1371.207275,102.614861 1370.069702,99.629013 1368.871826,98.729271 
	C1368.006470,98.079231 1365.115967,98.812569 1364.152588,99.865685 
	C1361.790405,102.447754 1360.020752,105.571815 1357.490356,109.006462 
M1393.039429,137.432938 
	C1392.933716,135.701340 1393.145630,133.852539 1392.570801,132.293930 
	C1392.329590,131.640030 1390.224365,131.044250 1389.304932,131.371902 
	C1383.274414,133.521164 1377.202148,135.654221 1371.464600,138.451370 
	C1370.055908,139.138123 1369.839233,142.269928 1369.074463,144.277634 
	C1370.793823,144.631287 1372.765381,145.709000 1374.189087,145.213409 
	C1380.377563,143.059158 1386.406372,140.446533 1393.039429,137.432938 
M1258.264404,141.034637 
	C1261.675293,142.408585 1265.276367,143.449631 1268.439819,145.256653 
	C1271.214844,146.841827 1272.993164,145.446228 1273.526001,143.563248 
	C1273.894409,142.260681 1272.519409,139.464340 1271.217773,138.863037 
	C1265.580200,136.258377 1259.734253,134.061996 1253.840942,132.084503 
	C1252.493286,131.632294 1250.655762,132.639664 1249.043701,132.975250 
	C1249.760986,134.864899 1249.990112,137.292465 1251.323853,138.502899 
	C1252.859253,139.896408 1255.371216,140.214081 1258.264404,141.034637 
M1321.310425,111.829659 
	C1326.423584,114.179192 1327.965820,113.330536 1327.992798,108.082512 
	C1328.023682,102.096718 1328.257935,96.092613 1327.841797,90.135712 
	C1327.717651,88.359390 1325.704224,86.715057 1324.556396,85.010254 
	C1323.370972,86.678268 1321.258545,88.294983 1321.162964,90.023315 
	C1320.777588,96.985107 1321.015381,103.981377 1321.310425,111.829659 
z"/>
<path fill="#000000" opacity="1.000000" stroke="none" 
	d="
M776.724487,169.799561 
	C782.518860,162.568375 790.282104,159.282043 798.643555,159.200821 
	C813.156738,159.059906 823.096069,165.322311 827.966553,181.343109 
	C828.474548,183.014114 828.693420,184.772980 829.101685,186.759766 
	C808.734192,189.520187 788.557678,192.254730 768.000671,195.040833 
	C767.915161,185.373505 770.544983,177.166824 776.724487,169.799561 
z"/>
<path fill="#000000" opacity="1.000000" stroke="none" 
	d="
M209.856079,161.645538 
	C217.015030,158.823502 224.010910,158.467880 231.035187,160.537277 
	C241.439499,163.602493 246.823624,171.398010 249.953766,181.165649 
	C250.489410,182.837143 250.663879,184.624374 251.082642,186.751572 
	C230.812698,189.506821 210.642441,192.248520 190.475342,194.989792 
	C188.667999,182.991959 196.909821,166.267792 209.856079,161.645538 
z"/>
<path fill="#000000" opacity="1.000000" stroke="none" 
	d="
M545.857422,203.999680 
	C551.971252,203.261246 557.620483,202.522842 563.972046,201.692627 
	C563.972046,212.141281 564.030518,222.223526 563.873779,232.302414 
	C563.859436,233.223419 562.648865,234.575623 561.685791,234.964005 
	C549.023804,240.070633 536.172791,241.267700 523.370789,235.665588 
	C517.434570,233.067917 513.134094,226.062958 514.096497,220.894577 
	C515.342712,214.201935 518.507385,208.597839 525.757324,207.066238 
	C532.229553,205.698929 538.842163,204.995880 545.857422,203.999680 
z"/>
<path fill="#F4F4F4" opacity="1.000000" stroke="none" 
	d="
M1347.000000,272.999390 
	C1315.865723,272.999390 1285.231445,272.999390 1254.599854,272.999390 
	C1254.348145,252.282928 1259.608521,237.017960 1284.295654,232.901062 
	C1290.238647,231.909973 1296.151489,230.116379 1301.750488,227.873627 
	C1306.590332,225.935013 1306.888306,222.630035 1303.375854,218.878387 
	C1298.183594,213.332687 1292.683105,208.050156 1287.800781,202.246033 
	C1281.508667,194.765900 1278.412720,186.069092 1277.833130,176.091324 
	C1277.172729,164.721741 1278.596436,154.076691 1283.593140,143.782074 
	C1289.540649,131.529037 1300.040649,125.359070 1312.429199,122.137383 
	C1323.303833,119.309380 1333.983887,121.023193 1344.124756,125.993912 
	C1352.108521,129.907242 1357.532837,136.172806 1360.993286,144.181030 
	C1367.080322,158.268051 1367.919312,172.867172 1363.903320,187.550583 
	C1361.033936,198.042450 1353.959717,205.991653 1346.196777,213.306686 
	C1344.743164,214.676422 1343.395874,216.158264 1341.975220,217.563660 
	C1336.514526,222.965240 1337.447510,227.600632 1344.917114,229.885864 
	C1350.728271,231.663666 1356.732422,233.013809 1362.747803,233.882599 
	C1380.733643,236.480362 1389.004028,251.030182 1388.999878,267.504852 
	C1388.999512,269.148499 1388.999756,270.792175 1388.999756,272.999390 
	C1375.022217,272.999390 1361.261108,272.999390 1347.000000,272.999390 
M1330.005859,156.524216 
	C1327.166382,158.399521 1324.326904,160.274811 1321.844238,161.914520 
	C1319.315430,160.204330 1316.487671,157.229477 1313.081665,156.235107 
	C1307.855347,154.709290 1303.988159,161.772766 1306.485962,167.942337 
	C1309.271484,174.822342 1314.442749,179.588257 1320.771973,183.153976 
	C1321.442139,183.531509 1323.024902,183.298676 1323.561279,182.745255 
	C1328.034790,178.129471 1333.002563,173.805099 1336.561279,168.540970 
	C1340.457520,162.777679 1337.605713,157.691956 1330.005859,156.524216 
z"/>
<path fill="#F4F4F4" opacity="1.000000" stroke="none" 
	d="
M1385.999512,167.999710 
	C1389.649536,168.000290 1392.875732,167.626816 1395.943726,168.161469 
	C1397.445923,168.423233 1399.253174,170.164978 1399.764404,171.638611 
	C1400.058472,172.486160 1398.085815,175.208206 1397.052368,175.253952 
	C1389.691772,175.579788 1382.303467,175.583481 1374.942505,175.264038 
	C1373.911743,175.219299 1371.942627,172.495163 1372.236450,171.638260 
	C1372.741455,170.165619 1374.553711,168.422592 1376.055420,168.160904 
	C1379.123413,167.626297 1382.349609,168.000092 1385.999512,167.999710 
z"/>
<path fill="#F4F4F4" opacity="1.000000" stroke="none" 
	d="
M1243.024170,170.244492 
	C1244.474121,169.198349 1245.887939,168.128250 1247.334106,168.082565 
	C1253.451172,167.889297 1259.579590,168.086426 1265.700317,167.965973 
	C1268.938721,167.902267 1270.679321,170.051300 1270.545044,172.453217 
	C1270.474121,173.720764 1267.479004,175.699951 1265.689331,175.835022 
	C1259.929932,176.269730 1254.114746,176.097549 1248.325928,175.956329 
	C1245.082886,175.877213 1242.127441,175.118256 1243.024170,170.244492 
z"/>
<path fill="#F4F4F4" opacity="1.000000" stroke="none" 
	d="
M1291.581177,119.871559 
	C1287.237305,114.120766 1283.109009,108.597717 1279.442993,102.783310 
	C1278.534180,101.341980 1278.268677,98.171799 1279.195312,97.162643 
	C1281.353760,94.812302 1283.957886,95.792336 1285.776489,98.318687 
	C1289.052856,102.869827 1292.495239,107.322052 1295.439697,112.080803 
	C1296.522583,113.830902 1296.814087,116.380653 1296.573120,118.462204 
	C1296.494507,119.140671 1293.583252,119.491196 1291.581177,119.871559 
z"/>
<path fill="#F4F4F4" opacity="1.000000" stroke="none" 
	d="
M1357.751587,108.742126 
	C1360.020752,105.571815 1361.790405,102.447754 1364.152588,99.865685 
	C1365.115967,98.812569 1368.006470,98.079231 1368.871826,98.729271 
	C1370.069702,99.629013 1371.207275,102.614861 1370.593872,103.591705 
	C1366.845581,109.560890 1362.754517,115.341675 1358.365601,120.857109 
	C1357.566040,121.861763 1354.207153,122.143936 1353.224487,121.325333 
	C1352.206787,120.477486 1351.951416,117.580421 1352.594360,116.122841 
	C1353.735962,113.534447 1355.807739,111.356247 1357.751587,108.742126 
z"/>
<path fill="#F4F4F4" opacity="1.000000" stroke="none" 
	d="
M1392.766357,137.716705 
	C1386.406372,140.446533 1380.377563,143.059158 1374.189087,145.213409 
	C1372.765381,145.709000 1370.793823,144.631287 1369.074463,144.277649 
	C1369.839233,142.269928 1370.055908,139.138123 1371.464600,138.451370 
	C1377.202148,135.654221 1383.274414,133.521164 1389.304932,131.371902 
	C1390.224365,131.044250 1392.329590,131.640030 1392.570801,132.293930 
	C1393.145630,133.852539 1392.933716,135.701340 1392.766357,137.716705 
z"/>
<path fill="#F4F4F4" opacity="1.000000" stroke="none" 
	d="
M1257.861694,141.016815 
	C1255.371216,140.214081 1252.859253,139.896408 1251.323853,138.502899 
	C1249.990112,137.292465 1249.760986,134.864899 1249.043701,132.975266 
	C1250.655762,132.639664 1252.493286,131.632294 1253.840942,132.084503 
	C1259.734253,134.061996 1265.580200,136.258377 1271.217773,138.863037 
	C1272.519409,139.464340 1273.894409,142.260681 1273.526001,143.563248 
	C1272.993164,145.446228 1271.214844,146.841827 1268.439819,145.256653 
	C1265.276367,143.449631 1261.675293,142.408585 1257.861694,141.016815 
z"/>
<path fill="#F4F4F4" opacity="1.000000" stroke="none" 
	d="
M1321.166748,111.397285 
	C1321.015381,103.981377 1320.777588,96.985107 1321.162964,90.023315 
	C1321.258545,88.294983 1323.370972,86.678268 1324.556396,85.010254 
	C1325.704224,86.715057 1327.717651,88.359390 1327.841797,90.135712 
	C1328.257935,96.092613 1328.023682,102.096718 1327.992798,108.082512 
	C1327.965820,113.330536 1326.423584,114.179192 1321.166748,111.397285 
z"/>
<path fill="#000000" opacity="1.000000" stroke="none" 
	d="
M1330.321411,156.283630 
	C1337.605713,157.691956 1340.457520,162.777679 1336.561279,168.540970 
	C1333.002563,173.805099 1328.034790,178.129471 1323.561279,182.745255 
	C1323.024902,183.298676 1321.442139,183.531509 1320.771973,183.153976 
	C1314.442749,179.588257 1309.271484,174.822342 1306.485962,167.942337 
	C1303.988159,161.772766 1307.855347,154.709290 1313.081665,156.235107 
	C1316.487671,157.229477 1319.315430,160.204330 1321.844238,161.914520 
	C1324.326904,160.274811 1327.166382,158.399521 1330.321411,156.283630 
z"/>
</svg>